<svg width="20" height="20" viewBox="0 0 20 20" fill="none" xmlns="http://www.w3.org/2000/svg">
<g id="Icon/TwitterLogo">
<path id="Vector" d="M19.3277 5.38601C19.2804 5.2718 19.2003 5.17417 19.0976 5.10547C18.9948 5.03678 18.874 5.0001 18.7504 5.00007H16.373C16.0406 4.43459 15.5676 3.96473 14.9999 3.63617C14.4322 3.30761 13.7891 3.13154 13.1332 3.12507C12.6445 3.11866 12.1595 3.21005 11.7067 3.39386C11.2539 3.57767 10.8424 3.85019 10.4965 4.19538C10.1404 4.54478 9.85783 4.96183 9.6653 5.42201C9.47278 5.8822 9.3742 6.37624 9.37537 6.87507V7.35085C6.23005 6.52116 3.6574 3.96257 3.63005 3.93523C3.5462 3.85063 3.43993 3.79176 3.32374 3.76555C3.20755 3.73933 3.08629 3.74686 2.97424 3.78724C2.86219 3.82763 2.76401 3.8992 2.69127 3.99351C2.61852 4.08783 2.57425 4.20097 2.56365 4.3196C2.22693 8.0532 3.3113 10.5516 4.2824 11.9899C4.7559 12.7009 5.33192 13.338 5.99177 13.8805C4.80193 15.2501 2.92849 15.9696 2.90818 15.9774C2.81999 16.0104 2.7404 16.063 2.67536 16.1311C2.61033 16.1992 2.56152 16.2811 2.5326 16.3708C2.50368 16.4604 2.49538 16.5554 2.50833 16.6487C2.52129 16.7419 2.55515 16.8311 2.6074 16.9094C2.66599 16.9969 2.90037 17.304 3.47302 17.5907C4.18083 17.9454 5.11599 18.1251 6.25037 18.1251C11.7715 18.1251 16.3847 13.8735 16.8558 8.4032L19.1926 6.06726C19.2799 5.9798 19.3394 5.8684 19.3635 5.74714C19.3875 5.62587 19.3751 5.5002 19.3277 5.38601ZM15.8121 7.68366C15.7049 7.79108 15.6405 7.93381 15.6308 8.08523C15.3129 13.0141 11.1941 16.8751 6.25037 16.8751C5.42537 16.8751 4.84412 16.7657 4.4363 16.6344C5.33552 16.1462 6.58943 15.3063 7.39568 14.0969C7.443 14.0258 7.47524 13.9458 7.49041 13.8617C7.50558 13.7777 7.50336 13.6914 7.48389 13.6082C7.46442 13.525 7.4281 13.4467 7.37719 13.3782C7.32627 13.3096 7.26184 13.2522 7.18787 13.2094C7.15115 13.1884 3.7574 11.1516 3.75037 5.70945C5.00037 6.72507 7.28552 8.30085 9.89646 8.73991C9.98594 8.755 10.0776 8.75042 10.1652 8.72649C10.2527 8.70256 10.334 8.65986 10.4033 8.60135C10.4727 8.54284 10.5285 8.46993 10.5668 8.38768C10.6052 8.30543 10.6252 8.21582 10.6254 8.12507V6.87507C10.6247 6.54167 10.6907 6.2115 10.8195 5.90399C10.9483 5.59647 11.1373 5.31783 11.3754 5.08445C11.6036 4.85577 11.8754 4.67518 12.1746 4.55333C12.4739 4.43149 12.7945 4.37088 13.1176 4.37507C14.1066 4.38757 15.0308 4.9907 15.4176 5.87585C15.4663 5.98714 15.5464 6.0818 15.6481 6.14827C15.7498 6.21473 15.8687 6.25011 15.9902 6.25007H17.2402L15.8121 7.68366Z" fill="#2CA2AE"/>
</g>
</svg>
